<?xml version="1.0" standalone="no"?>
<!DOCTYPE svg PUBLIC "-//W3C//DTD SVG 20010904//EN"
 "http://www.w3.org/TR/2001/REC-SVG-20010904/DTD/svg10.dtd">
<svg version="1.0" xmlns="http://www.w3.org/2000/svg"
 width="292.000000pt" height="292.000000pt" viewBox="0 0 292.000000 292.000000"
 preserveAspectRatio="xMidYMid meet">
<metadata>
Created by potrace 1.11, written by Peter Selinger 2001-2013
</metadata>
<g transform="translate(0.000000,292.000000) scale(0.100000,-0.100000)"
fill="#000000" stroke="none">
<path d="M49 2806 c0 -1 -2 -609 -2 -1352 l-2 -1352 23 3 c12 1 22 -2 22 -7 0
-5 5 -6 11 -2 16 10 150 11 156 1 2 -4 10 -4 16 0 18 11 57 12 57 2 0 -6 5 -7
11 -3 16 10 150 11 156 1 2 -4 10 -4 16 0 18 11 57 12 57 2 0 -6 5 -7 11 -3
17 10 109 10 109 0 0 -5 7 -3 15 4 11 9 15 9 15 1 0 -21 61 45 125 135 11 16
30 39 43 52 12 13 22 27 22 32 0 6 4 10 8 10 5 0 17 15 27 34 11 19 23 33 27
30 4 -3 11 3 15 13 3 10 16 30 27 44 12 14 35 43 51 65 17 21 38 46 48 56 9
10 14 18 10 18 -3 0 4 9 17 20 13 11 20 20 16 20 -4 0 5 13 21 30 43 45 58 64
55 68 -2 2 5 10 15 18 10 7 15 14 11 14 -4 0 5 13 20 29 37 39 67 75 67 81 0
3 10 16 23 30 12 13 22 28 22 32 0 5 4 7 9 4 5 -4 11 0 14 6 3 9 11 5 23 -11
10 -14 26 -33 36 -43 10 -10 18 -21 18 -24 0 -4 12 -17 26 -30 14 -13 23 -28
19 -33 -3 -5 4 -12 15 -16 11 -3 19 -9 17 -13 -1 -4 7 -16 18 -27 11 -12 29
-34 40 -50 11 -16 30 -39 43 -52 12 -13 22 -31 22 -39 0 -8 5 -12 10 -9 6 3
10 2 10 -2 0 -5 16 -26 35 -48 19 -22 35 -43 35 -46 0 -4 12 -21 28 -37 15
-17 37 -43 49 -59 12 -15 31 -39 43 -53 12 -14 30 -35 41 -47 10 -13 16 -23
12 -23 -3 0 4 -8 15 -19 12 -10 19 -21 15 -25 -3 -3 1 -6 10 -6 9 0 17 -6 17
-13 0 -8 9 -22 20 -32 11 -10 20 -25 20 -33 0 -9 3 -12 6 -9 4 3 15 -5 26 -18
16 -20 27 -25 54 -21 19 2 37 -1 40 -6 3 -4 11 -5 17 -1 18 11 57 12 57 2 0
-6 5 -7 11 -3 16 10 150 11 156 1 2 -4 10 -4 16 0 18 11 57 12 57 2 0 -6 5 -7
12 -3 16 10 69 11 75 1 2 -4 10 -4 16 0 18 11 57 12 57 2 0 -6 5 -7 12 -3 15
9 140 10 155 1 6 -4 15 -2 19 4 4 8 9 7 15 -2 7 -11 9 -9 9 7 0 18 -29 61 -72
106 -10 10 -18 21 -18 26 0 4 -11 20 -25 35 -14 15 -24 27 -21 27 3 0 -5 11
-17 24 -45 49 -77 89 -77 95 0 4 -18 27 -40 51 -22 25 -40 51 -40 58 0 7 -4
10 -10 7 -6 -3 -10 1 -10 10 0 8 -7 18 -15 21 -8 4 -15 12 -15 20 0 7 -8 18
-17 23 -10 6 -14 11 -9 11 5 0 -1 9 -14 20 -13 11 -20 20 -16 20 5 0 -8 16
-28 36 -20 20 -36 39 -36 43 0 5 -8 17 -17 29 -10 11 -29 35 -43 52 -14 18
-31 38 -37 45 -7 8 -13 18 -13 24 0 5 -11 18 -25 29 -14 11 -25 27 -25 36 0 9
-3 15 -7 14 -5 -2 -10 2 -13 7 -5 10 -35 47 -58 71 -7 8 -10 14 -6 14 4 0 -4
10 -17 23 -14 12 -35 39 -48 60 -12 20 -27 37 -32 37 -5 0 -9 5 -9 11 0 6 -6
16 -12 23 -25 25 -66 81 -65 86 1 3 -9 18 -23 32 -33 34 -60 67 -60 74 0 3
-11 16 -25 30 -24 24 -24 45 -1 70 6 7 27 31 45 54 19 23 41 49 49 56 7 8 11
14 8 14 -3 0 2 8 12 18 26 28 52 62 52 67 0 3 8 13 18 23 32 34 62 72 56 72
-3 0 7 11 22 25 15 14 24 25 20 25 -4 0 3 11 16 24 13 13 31 35 41 48 23 30
57 73 84 106 13 15 23 33 23 40 0 7 4 11 8 8 5 -3 16 8 26 25 9 16 21 29 25
29 5 0 14 13 21 30 7 16 16 27 21 24 5 -2 11 6 15 20 3 14 9 24 13 23 3 -1 7
2 8 6 1 4 8 14 15 21 7 7 24 28 38 46 14 19 33 42 43 52 9 10 17 21 17 26 0 4
8 15 18 23 28 25 63 69 54 69 -4 0 0 5 8 10 8 5 15 13 15 18 0 4 12 19 26 33
14 13 29 34 33 47 4 12 11 20 15 17 4 -2 14 7 21 20 7 14 17 25 22 25 4 0 8 4
8 10 0 5 9 20 19 32 62 72 71 84 71 95 0 6 6 13 13 16 6 2 -426 4 -960 4
l-973 0 0 -299 c0 -299 1 -304 33 -299 4 0 7 -3 7 -7 0 -12 164 -9 172 3 5 7
8 6 8 -1 0 -11 148 -13 166 -1 6 3 14 3 18 -1 12 -11 146 -9 146 3 0 7 3 6 8
-1 4 -5 17 -10 30 -11 46 -2 51 -4 57 -24 5 -15 -1 -29 -21 -50 -15 -16 -24
-29 -21 -29 4 0 -5 -12 -20 -28 -15 -15 -41 -45 -58 -67 -16 -22 -35 -46 -42
-53 -7 -7 -27 -33 -44 -57 -18 -25 -36 -45 -41 -45 -4 0 -8 -4 -8 -10 0 -5 -9
-20 -19 -32 -38 -46 -127 -157 -146 -184 -11 -16 -30 -39 -42 -51 -12 -13 -19
-23 -16 -23 3 0 -4 -8 -15 -19 -12 -10 -22 -23 -22 -29 0 -5 -7 -12 -15 -16
-8 -3 -15 -10 -15 -16 0 -6 -10 -22 -22 -35 -68 -73 -68 -74 -68 -95 0 -5 -3
-9 -7 -7 -5 1 -9 -1 -10 -6 -2 -4 -11 -15 -20 -25 -30 -32 -63 -72 -64 -80 -1
-4 -9 -12 -18 -19 -9 -7 -12 -13 -8 -13 4 0 -5 -12 -20 -28 -15 -15 -44 -48
-63 -74 -38 -51 -54 -58 -65 -30 -11 28 -12 1272 0 1272 7 0 7 3 0 8 -5 4 -10
21 -10 37 0 17 5 33 10 37 7 5 7 8 0 8 -5 0 -10 16 -10 35 0 19 5 35 10 35 7
0 7 3 0 8 -5 4 -10 21 -10 37 0 17 5 33 10 37 7 5 7 8 0 8 -5 0 -10 16 -10 35
0 19 5 35 10 35 7 0 7 3 0 8 -5 4 -10 21 -10 37 0 17 5 33 10 37 6 5 5 8 -3 8
-7 0 -11 4 -8 9 3 5 3 22 0 38 l-6 30 -299 0 c-164 0 -299 0 -300 -1z"/>
</g>
</svg>
